<?xml version="1.0" encoding="UTF-8"?>
<svg xmlns="http://www.w3.org/2000/svg" width="current" height="current" viewBox="0 0 53 51" fill="none">
  <path d="M20.385 50.5577C19.9777 50.5577 19.5704 50.5577 19.1631 50.5577C14.683 50.2862 10.3386 48.2498 6.80884 44.8557C3.27903 41.5975 1.10687 37.2531 0.428065 32.9087C-0.114981 28.4286 1.10684 24.22 3.95783 21.2332C6.80883 18.2465 10.8817 16.7531 15.4976 17.0246C19.9777 17.2961 24.3221 19.3326 27.8519 22.7266C31.3817 25.9849 33.5539 30.3293 34.2327 34.6736C34.7757 39.1538 33.5539 43.3624 30.7029 46.3491C28.1234 49.0644 24.4578 50.5577 20.385 50.5577Z" fill="current"></path>
  <path d="M40.6138 25.0342C39.5277 25.0342 38.4416 24.7627 37.4913 24.2196C35.8621 23.4051 34.6403 21.9117 34.0972 20.1468C33.0111 16.617 35.0475 12.6799 38.5773 11.5938C42.1071 10.5077 46.0443 12.5441 47.1304 16.0739C47.6734 17.8388 47.5376 19.6037 46.723 21.2329C45.9085 22.862 44.4151 24.0839 42.6502 24.6269C41.9714 24.8984 41.2926 25.0342 40.6138 25.0342Z" fill="current"></path>
  <path d="M46.1802 42.8192C43.3292 42.8192 40.614 40.9185 39.6636 38.0675C38.5775 34.5377 40.614 30.6006 44.1438 29.5145C45.9087 28.9715 47.6736 29.1073 49.3027 29.9218C50.9319 30.7364 52.1537 32.2298 52.6968 33.9947C53.7828 37.5245 51.7464 41.4616 48.2166 42.5477C47.5378 42.6834 46.859 42.8192 46.1802 42.8192Z" fill="current"></path>
  <path d="M26.0874 13.6305C23.2364 13.6305 20.5212 11.7298 19.5709 8.87881C18.4848 5.34901 20.5212 1.41192 24.051 0.325828C25.8159 -0.217219 27.5808 -0.081457 29.2099 0.733113C30.8391 1.54768 32.0609 3.04106 32.604 4.80596C33.147 6.57086 33.0113 8.33576 32.1967 9.9649C31.3821 11.594 29.8888 12.8159 28.1239 13.3589C27.4451 13.4947 26.7662 13.6305 26.0874 13.6305Z" fill="current"></path>
  <path d="M6.80908 13.9019C5.72299 13.9019 4.63691 13.6304 3.68658 13.0873C2.05744 12.2727 0.835588 10.7794 0.292542 9.01447C-0.793551 5.48466 1.24286 1.54758 4.77266 0.461486C8.30246 -0.624607 12.2396 1.41182 13.3257 4.94162C14.4118 8.47142 12.3753 12.4085 8.84551 13.4946C8.1667 13.9019 7.48789 13.9019 6.80908 13.9019Z" fill="current"></path>
</svg>
